<?xml version="1.0" encoding="iso-8859-1"?>
<!-- Generator: Adobe Illustrator 16.0.0, SVG Export Plug-In . SVG Version: 6.00 Build 0)  -->
<!DOCTYPE svg PUBLIC "-//W3C//DTD SVG 1.1//EN" "http://www.w3.org/Graphics/SVG/1.1/DTD/svg11.dtd">
<svg version="1.1" id="Capa_1" xmlns="http://www.w3.org/2000/svg" xmlns:xlink="http://www.w3.org/1999/xlink" x="0px" y="0px"
	 width="30px" height="30px" viewBox="0 0 50 50" style="enable-background:new 0 0 50 50;" xml:space="preserve">
<g>
	<g>
		<path d="M10.4,10.3c0-1.198,0.057-2.188,12.826-2.271v13.416h3.548V8.029C39.543,8.112,39.6,9.102,39.6,10.3v16.13h3.895V7.208
			C43.492,5.629,41.52,0,25,0C8.48,0,6.507,5.629,6.507,7.208V26.43H10.4V10.3z"/>
		<path d="M44.578,38.598c0-0.007,0.004-0.014,0.004-0.021v-9.974c0-0.598-0.49-1.088-1.09-1.088H37.65
			c-0.014-0.113-0.027-0.229-0.082-0.356l-1.203-2.844c-0.269-0.633-0.976-1.15-1.574-1.15H15.209c-0.6,0-1.307,0.517-1.575,1.15
			l-1.203,2.844c-0.054,0.127-0.068,0.243-0.082,0.356H6.507c-0.602,0-1.089,0.491-1.089,1.088v9.974
			c0,0.007,0.004,0.014,0.004,0.021c-0.551,0.055-1.001,0.506-1.019,1.067l-0.038,1.271c-0.021,0.597,0.453,1.086,1.053,1.086H8.59
			V48.7c0,0.715,0.488,1.3,1.088,1.3h4.351c0.6,0,1.089-0.585,1.089-1.299v-6.678h19.764v6.678c0,0.714,0.488,1.299,1.088,1.299
			h4.351c0.599,0,1.087-0.585,1.087-1.299v-6.678h3.176c0.6,0,1.072-0.49,1.055-1.088l-0.04-1.27
			C45.578,39.104,45.129,38.652,44.578,38.598z M15.118,34.227c0,0.598-0.489,1.088-1.089,1.088h-4.35
			c-0.6,0-1.088-0.49-1.088-1.088v-1.088c0-0.598,0.488-1.088,1.088-1.088h4.351c0.6,0,1.089,0.49,1.089,1.088L15.118,34.227
			L15.118,34.227z M32.614,34.135c0,0.598-0.487,1.088-1.088,1.088H18.474c-0.601,0-1.088-0.49-1.088-1.088v-3.264
			c0-0.598,0.487-1.088,1.088-1.088h13.054c0.6,0,1.088,0.49,1.088,1.088L32.614,34.135L32.614,34.135z M41.406,34.227
			c0,0.598-0.488,1.088-1.087,1.088h-4.351c-0.6,0-1.088-0.49-1.088-1.088v-1.088c0-0.598,0.488-1.088,1.088-1.088h4.351
			c0.599,0,1.087,0.49,1.087,1.088V34.227z"/>
		<path d="M47.846,11.446H45.67c-0.601,0-1.088,0.489-1.088,1.088v7.615c0,0.598,0.487,1.088,1.088,1.088l2.176-2.176
			c0.6,0,1.088-0.491,1.088-1.088v-5.439C48.934,11.935,48.444,11.446,47.846,11.446z"/>
		<path d="M5.418,20.149v-7.615c0-0.599-0.488-1.088-1.088-1.088H2.154c-0.6,0-1.088,0.489-1.088,1.088v5.439
			c0,0.598,0.488,1.088,1.088,1.088l2.176,2.176C4.931,21.237,5.418,20.747,5.418,20.149z"/>
	</g>
</g>
<g>
</g>
<g>
</g>
<g>
</g>
<g>
</g>
<g>
</g>
<g>
</g>
<g>
</g>
<g>
</g>
<g>
</g>
<g>
</g>
<g>
</g>
<g>
</g>
<g>
</g>
<g>
</g>
<g>
</g>
</svg>
